<?xml version="1.0" standalone="no"?>
<!DOCTYPE svg PUBLIC "-//W3C//DTD SVG 20010904//EN"
 "http://www.w3.org/TR/2001/REC-SVG-20010904/DTD/svg10.dtd">
<svg version="1.0" xmlns="http://www.w3.org/2000/svg"
 width="700.000000pt" height="700.000000pt" viewBox="0 0 700.000000 700.000000"
 preserveAspectRatio="xMidYMid meet">
<metadata>
Created by potrace 1.11, written by Peter Selinger 2001-2013
</metadata>
<g transform="translate(0.000000,700.000000) scale(0.100000,-0.100000)"
fill="#000000" stroke="none">
<path d="M140 6987 c-48 -15 -113 -83 -128 -133 -9 -32 -12 -649 -12 -2813 0
-2483 2 -2776 16 -2809 19 -47 58 -88 107 -113 36 -19 61 -19 650 -17 l612 3
42 29 c135 91 117 298 -32 367 -37 17 -74 19 -502 19 l-463 0 0 2525 0 2525
3070 0 3070 0 0 -2917 0 -2917 -382 381 c-319 317 -390 383 -423 392 -29 9
-277 11 -916 9 l-875 -3 -42 -27 c-124 -83 -126 -266 -3 -353 l43 -30 811 -3
812 -2 530 -530 c402 -401 541 -534 575 -549 63 -28 116 -27 181 6 57 30 92
71 109 132 16 57 14 6641 -2 6695 -16 53 -81 118 -134 134 -57 17 -6661 16
-6714 -1z"/>
<path d="M1791 5345 c-93 -29 -162 -140 -146 -235 11 -64 56 -124 116 -154
l53 -26 1686 0 1686 0 53 26 c60 30 105 90 116 154 16 97 -53 206 -150 236
-70 21 -3346 20 -3414 -1z"/>
<path d="M1770 3694 c-167 -72 -165 -318 2 -389 33 -13 145 -15 911 -15 l874
0 44 23 c24 13 58 43 74 66 27 39 30 50 30 121 0 71 -3 82 -30 121 -16 23 -50
53 -74 66 l-44 23 -876 0 c-760 -1 -881 -3 -911 -16z"/>
<path d="M2315 1502 c-73 -34 -125 -114 -125 -193 0 -44 29 -112 62 -146 60
-62 76 -64 445 -61 l331 3 43 30 c123 87 121 270 -3 353 l-42 27 -335 2 c-308
3 -339 1 -376 -15z"/>
</g>
</svg>
